<?xml version="1.0" encoding="utf-8"?>
<!-- Generator: Adobe Illustrator 17.1.0, SVG Export Plug-In . SVG Version: 6.00 Build 0)  -->
<!DOCTYPE svg PUBLIC "-//W3C//DTD SVG 1.1//EN" "http://www.w3.org/Graphics/SVG/1.1/DTD/svg11.dtd">
<svg version="1.1" id="Layer_1" xmlns="http://www.w3.org/2000/svg" xmlns:xlink="http://www.w3.org/1999/xlink" x="0px" y="0px"
	 width="1792px" height="1792px" viewBox="0 0 1792 1792" enable-background="new 0 0 1792 1792" xml:space="preserve">
<path d="M1793.2,522.3c0,15.6-6,29.3-18,41.3l-837.3,837.3c-12,12-25.8,18-41.3,18c-15.6,0-29.3-6-41.3-18L18,563.6
	c-12-12-18-25.8-18-41.3c0-15.6,6-29.3,18-41.3l89.8-89.8c12-12,25.8-18,41.3-18s29.3,6,41.3,18l706.1,706.1l706.1-706.1
	c12-12,25.8-18,41.3-18s29.3,6,41.3,18l89.8,89.8C1787.2,492.9,1793.2,506.7,1793.2,522.3z"/>
</svg>
