<?xml version="1.0" encoding="utf-8"?>
<!-- Generator: Adobe Illustrator 17.1.0, SVG Export Plug-In . SVG Version: 6.00 Build 0)  -->
<!DOCTYPE svg PUBLIC "-//W3C//DTD SVG 1.1//EN" "http://www.w3.org/Graphics/SVG/1.1/DTD/svg11.dtd">
<svg version="1.1" id="Layer_1" xmlns="http://www.w3.org/2000/svg" xmlns:xlink="http://www.w3.org/1999/xlink" x="0px" y="0px"
	 width="1792px" height="1792px" viewBox="0 0 1792 1792" enable-background="new 0 0 1792 1792" xml:space="preserve">
<path d="M1417.5,148.7c0,15.5-6,29.3-17.9,41.2L695.3,894.2l704.2,704.2c11.9,11.9,17.9,25.7,17.9,41.2c0,15.5-6,29.3-17.9,41.2
	l-89.6,89.6c-11.9,11.9-25.7,17.9-41.2,17.9c-15.5,0-29.3-6-41.2-17.9l-835-835c-11.9-11.9-17.9-25.7-17.9-41.2s6-29.3,17.9-41.2
	l835-835C1239.5,6,1253.2,0,1268.7,0c15.5,0,29.3,6,41.2,17.9l89.6,89.6C1411.5,119.5,1417.5,133.2,1417.5,148.7z"/>
</svg>
