<?xml version="1.0" encoding="utf-8"?>
<!-- Generator: Adobe Illustrator 17.1.0, SVG Export Plug-In . SVG Version: 6.00 Build 0)  -->
<!DOCTYPE svg PUBLIC "-//W3C//DTD SVG 1.1//EN" "http://www.w3.org/Graphics/SVG/1.1/DTD/svg11.dtd">
<svg version="1.1" id="Layer_1" xmlns="http://www.w3.org/2000/svg" xmlns:xlink="http://www.w3.org/1999/xlink" x="0px" y="0px"
	 width="1792px" height="1792px" viewBox="0 0 1792 1792" enable-background="new 0 0 1792 1792" xml:space="preserve">
<path d="M1790.2,1269.1c0,15.5-6,29.3-17.9,41.3l-89.7,89.7c-12,12-25.7,17.9-41.3,17.9c-15.5,0-29.3-6-41.3-17.9L895.1,695.1
	L190.1,1400c-12,12-25.7,17.9-41.3,17.9s-29.3-6-41.3-17.9l-89.7-89.7c-12-12-17.9-25.7-17.9-41.3c0-15.5,6-29.3,17.9-41.3
	L853.8,392c12-12,25.7-17.9,41.3-17.9s29.3,6,41.3,17.9l835.9,835.9C1784.2,1239.8,1790.2,1253.6,1790.2,1269.1z"/>
</svg>
