<?xml version="1.0" encoding="utf-8"?>
<!-- Generator: Adobe Illustrator 17.1.0, SVG Export Plug-In . SVG Version: 6.00 Build 0)  -->
<!DOCTYPE svg PUBLIC "-//W3C//DTD SVG 1.1//EN" "http://www.w3.org/Graphics/SVG/1.1/DTD/svg11.dtd">
<svg version="1.1" id="Layer_1" xmlns="http://www.w3.org/2000/svg" xmlns:xlink="http://www.w3.org/1999/xlink" x="0px" y="0px"
	 width="1792px" height="1792px" viewBox="0 0 1792 1792" enable-background="new 0 0 1792 1792" xml:space="preserve">
<path d="M1417.9,895c0,15.5-6,29.3-17.9,41.3l-835.8,835.8c-12,12-25.7,17.9-41.3,17.9c-15.5,0-29.3-6-41.3-17.9l-89.7-89.7
	c-12-12-17.9-25.7-17.9-41.3c0-15.5,6-29.3,17.9-41.3L1096.9,895L392,190.1c-12-12-17.9-25.7-17.9-41.3s6-29.3,17.9-41.3l89.7-89.7
	C493.6,6,507.4,0,522.9,0c15.5,0,29.3,6,41.3,17.9L1400,853.7C1412,865.7,1417.9,879.5,1417.9,895z"/>
</svg>
