<?xml version="1.0" encoding="utf-8"?>
<!-- Generator: Adobe Illustrator 17.1.0, SVG Export Plug-In . SVG Version: 6.00 Build 0)  -->
<!DOCTYPE svg PUBLIC "-//W3C//DTD SVG 1.1//EN" "http://www.w3.org/Graphics/SVG/1.1/DTD/svg11.dtd">
<svg version="1.1" id="Layer_1" xmlns="http://www.w3.org/2000/svg" xmlns:xlink="http://www.w3.org/1999/xlink" x="0px" y="0px"
	 width="1792px" height="1792px" viewBox="0 0 1792 1792" enable-background="new 0 0 1792 1792" xml:space="preserve">
<path d="M428.8,1640.8l107.5-107.5l-277.6-277.6l-107.5,107.5v126.4h151.2v151.2H428.8z M1046.6,544.5c0-17.3-8.7-26-26-26
	c-7.9,0-14.6,2.8-20.1,8.3l-640.3,640.3c-5.5,5.5-8.3,12.2-8.3,20.1c0,17.3,8.7,26,26,26c7.9,0,14.6-2.8,20.1-8.3l640.3-640.3
	C1043.9,559.1,1046.6,552.4,1046.6,544.5z M982.9,317.7l491.4,491.4L491.4,1792H0v-491.4L982.9,317.7z M1789.7,431.1
	c0,41.7-14.6,77.2-43.7,106.3l-196.1,196.1l-491.4-491.4l196.1-194.9c28.4-29.9,63.8-44.9,106.3-44.9c41.7,0,77.6,15,107.5,44.9
	L1746,323.6C1775.1,354.3,1789.7,390.2,1789.7,431.1z"/>
</svg>
