<?xml version="1.0" encoding="utf-8"?>
<!-- Generator: Adobe Illustrator 17.1.0, SVG Export Plug-In . SVG Version: 6.00 Build 0)  -->
<!DOCTYPE svg PUBLIC "-//W3C//DTD SVG 1.1//EN" "http://www.w3.org/Graphics/SVG/1.1/DTD/svg11.dtd">
<svg version="1.1" id="Layer_1" xmlns="http://www.w3.org/2000/svg" xmlns:xlink="http://www.w3.org/1999/xlink" x="0px" y="0px"
	 width="1792px" height="1792px" viewBox="0 0 1792 1792" enable-background="new 0 0 1792 1792" xml:space="preserve">
<path d="M1773,751h-730.8V20.2c0-11.2-9.7-20.2-21.6-20.2h-248C760.7,0,751,9,751,20.2V751H20.2C9,751,0,760.7,0,772.6v248
	c0,11.9,9,21.6,20.2,21.6H751V1773c0,11.2,9.7,20.2,21.6,20.2h248c11.9,0,21.6-9,21.6-20.2v-730.8H1773c11.2,0,20.2-9.7,20.2-21.6
	v-248C1793.2,760.7,1784.1,751,1773,751z"/>
</svg>
