<?xml version="1.0" encoding="utf-8"?>
<!-- Generator: Adobe Illustrator 17.1.0, SVG Export Plug-In . SVG Version: 6.00 Build 0)  -->
<!DOCTYPE svg PUBLIC "-//W3C//DTD SVG 1.1//EN" "http://www.w3.org/Graphics/SVG/1.1/DTD/svg11.dtd">
<svg version="1.1" id="Layer_1" xmlns="http://www.w3.org/2000/svg" xmlns:xlink="http://www.w3.org/1999/xlink" x="0px" y="0px"
	 width="1792px" height="1792px" viewBox="0 0 1792 1792" enable-background="new 0 0 1792 1792" xml:space="preserve">
<path d="M672.1,1455.7v-821c0-10.9-3.5-19.8-10.5-26.8s-15.9-10.5-26.8-10.5h-74.6c-10.9,0-19.8,3.5-26.8,10.5s-10.5,15.9-10.5,26.8
	v821c0,10.9,3.5,19.8,10.5,26.8s15.9,10.5,26.8,10.5h74.6c10.9,0,19.8-3.5,26.8-10.5S672.1,1466.6,672.1,1455.7z M970.6,1455.7v-821
	c0-10.9-3.5-19.8-10.5-26.8s-15.9-10.5-26.8-10.5h-74.6c-10.9,0-19.8,3.5-26.8,10.5s-10.5,15.9-10.5,26.8v821
	c0,10.9,3.5,19.8,10.5,26.8s15.9,10.5,26.8,10.5h74.6c10.9,0,19.8-3.5,26.8-10.5S970.6,1466.6,970.6,1455.7z M1269.2,1455.7v-821
	c0-10.9-3.5-19.8-10.5-26.8s-15.9-10.5-26.8-10.5h-74.6c-10.9,0-19.8,3.5-26.8,10.5s-10.5,15.9-10.5,26.8v821
	c0,10.9,3.5,19.8,10.5,26.8s15.9,10.5,26.8,10.5h74.6c10.9,0,19.8-3.5,26.8-10.5S1269.2,1466.6,1269.2,1455.7z M634.8,298.9h522.4
	l-56-136.4c-5.4-7-12.1-11.3-19.8-12.8H711.8c-7.8,1.6-14.4,5.8-19.8,12.8L634.8,298.9z M1717,336.3v74.6c0,10.9-3.5,19.8-10.5,26.8
	s-15.9,10.5-26.8,10.5h-111.9v1105.5c0,64.5-18.3,120.3-54.8,167.3s-80.5,70.6-131.8,70.6H410.9c-51.3,0-95.2-22.7-131.8-68.2
	c-36.5-45.5-54.8-100.5-54.8-165V448.2H112.4c-10.9,0-19.8-3.5-26.8-10.5c-7-7-10.5-15.9-10.5-26.8v-74.6c0-10.9,3.5-19.8,10.5-26.8
	c7-7,15.9-10.5,26.8-10.5h360.3l81.6-194.7c11.7-28.8,32.7-53.3,63-73.5c30.3-20.2,61-30.3,92.1-30.3h373.2
	c31.1,0,61.8,10.1,92.1,30.3c30.3,20.2,51.3,44.7,63,73.5l81.6,194.7h360.3c10.9,0,19.8,3.5,26.8,10.5S1717,325.4,1717,336.3z"/>
</svg>
